<?xml version="1.0" encoding="iso-8859-1"?>
<!-- Generator: Adobe Illustrator 18.1.1, SVG Export Plug-In . SVG Version: 6.00 Build 0)  -->
<svg version="1.1" id="Left_Breast_Front" xmlns="http://www.w3.org/2000/svg" xmlns:xlink="http://www.w3.org/1999/xlink" x="0px"
	 y="0px" viewBox="0 0 288 288" style="enable-background:new 0 0 288 288;" xml:space="preserve">
<g>
	<g>
		<g>
			<path style="fill:#EFEFEF;" d="M260.018,146.793H27.982c-2.338,0-4.148,2.098-3.863,4.476l7.531,62.774
				c0.24,2,1.897,3.502,3.863,3.502h217.592c1.98,0,3.645-1.524,3.867-3.541l6.914-62.774
				C264.146,148.864,262.341,146.793,260.018,146.793z"/>
			<path style="fill:#EFEFEF;" d="M73.89,137.309h140.582l8.71-40.634c0.13-0.547-0.079-1.119-0.53-1.455l-76.936-57.175
				c-0.115-0.085-0.24-0.158-0.375-0.203c-0.372-0.125-0.764-0.19-1.159-0.19c-0.395,0-0.787,0.065-1.159,0.19
				c-0.135,0.045-0.26,0.118-0.375,0.203L65.71,95.22c-0.452,0.336-0.66,0.908-0.531,1.455L73.89,137.309z"/>
		</g>
		<path style="fill:#F15825;" d="M64.921,137.309L54.577,93.607c-0.147-0.621,0.09-1.27,0.602-1.65l87.262-64.848
			c0.13-0.097,0.272-0.179,0.425-0.23c0.422-0.142,0.867-0.215,1.315-0.215c0.448,0,0.893,0.073,1.315,0.215
			c0.153,0.052,0.295,0.133,0.425,0.23c4.308,3.202,78.509,58.344,87.264,64.851c0.512,0.381,0.746,1.028,0.599,1.649
			l-10.344,43.702h16.425l11.896-50.257c0.147-0.621-0.09-1.27-0.602-1.65l-96.835-71.963c-0.059-0.044-0.12-0.084-0.184-0.121
			c-3.086-1.759-6.522-2.639-9.958-2.639s-6.872,0.88-9.958,2.639c-0.064,0.036-0.125,0.077-0.184,0.121L37.203,85.402
			c-0.512,0.381-0.749,1.029-0.602,1.65l11.896,50.257H64.921z"/>
		<path style="fill:#F15825;" d="M202.304,226.602l-2.16,9.124c-0.117,0.496-0.464,0.906-0.934,1.104l-54.409,22.947
			c-0.397,0.167-0.845,0.167-1.242,0L89.15,236.83c-0.47-0.198-0.816-0.608-0.934-1.104l-2.16-9.124H69.632l4.899,20.699
			c0.117,0.496,0.464,0.906,0.934,1.104l68.094,28.719c0.397,0.167,0.845,0.167,1.242,0l68.094-28.719
			c0.47-0.198,0.816-0.608,0.934-1.104l4.899-20.699H202.304z"/>
		<path style="fill:#EFEFEF;" d="M195.17,226.602l-1.648,5.682c-0.103,0.437-0.409,0.799-0.823,0.973l-47.971,19.593
			c-0.35,0.148-0.745,0.148-1.095,0l-47.971-19.593c-0.414-0.175-0.72-0.536-0.823-0.973l-1.647-5.682H195.17z"/>
		<g>
			<path style="fill:#F15825;" d="M173.823,195.865l0.371,5.687h-2.763c-3.827,0-5.687-2.126-5.687-6.378v-31.995l4.731-1.222h0.903
				v31.463c0,1.701,0.584,2.444,1.701,2.444H173.823z"/>
			<path style="fill:#F15825;" d="M188.437,198.575c-1.063,2.232-2.126,2.71-4.73,2.71h-2.764c-3.561,0-5.314-2.073-5.314-6.431
				v-3.88c0-3.986,1.754-6.059,5.314-6.059h7.016v-2.711c0-1.701-0.585-2.391-1.754-2.391h-2.764c-1.169,0-1.701,0.691-1.701,2.391
				v0.478h-5.261v-2.232c0-4.146,1.754-6.325,5.314-6.325h6.112c3.827,0,5.687,2.126,5.687,6.378v20.781h-4.73L188.437,198.575z
				 M186.152,195.599c1.222,0,1.807-0.85,1.807-2.817v-2.604h-5.793c-0.797,0-1.329,0.903-1.329,2.445v0.903
				c0,1.701,0.531,2.073,1.329,2.073H186.152z"/>
			<path style="fill:#F15825;" d="M203.264,199.001v2.285h-5.687v-38.107l4.73-1.222h0.956v14.084
				c1.222-1.435,2.71-1.914,4.624-1.914h2.338c3.88,0,5.74,2.286,5.74,6.697v13.34c0,4.73-1.967,7.122-6.165,7.122h-1.914
				C205.337,201.286,204.008,200.648,203.264,199.001z M203.264,192.888c0.053,2.02,0.797,2.923,2.126,2.923h2.764
				c1.435,0,2.179-0.903,2.179-3.135v-9.832c0-2.339-0.691-3.242-2.179-3.242h-2.764c-1.276,0-2.02,0.85-2.126,2.604V192.888z"/>
			<path style="fill:#F15825;" d="M226.01,179.389c-0.85,0-1.276,0.638-1.276,2.02v0.585c0,1.382,0.478,1.701,1.754,2.126
				l4.783,1.435c4.252,1.222,5.261,2.126,5.261,6.59v3.136c0,4.624-2.126,6.006-6.59,6.006h-4.252c-5.421,0-6.644-1.701-6.644-6.856
				v-1.542h5.261v1.01c0,1.488,0.425,2.126,1.276,2.126h4.412c0.85,0,1.276-0.638,1.276-2.02v-0.584
				c0-1.382-0.585-1.754-1.701-2.127l-4.783-1.435c-5.049-1.435-5.315-2.817-5.315-7.175v-2.073c0-4.57,1.116-6.484,6.644-6.484
				h3.401c5.527,0,6.59,1.807,6.59,7.122v1.648h-5.261v-1.382c0-1.435-0.425-2.127-1.276-2.127H226.01z"/>
		</g>
		<g>
			<path style="fill:#F15825;" d="M82.845,121.149l66.21-61.362c0.863-0.801,1.569-0.529,1.569,0.602v44.403
				c0,1.131-0.706,2.71-1.569,3.511l-13.86,12.845c-0.863,0.8-2.568,1.454-3.789,1.454H83.495
				C82.274,122.604,81.982,121.949,82.845,121.149z"/>
		</g>
	</g>
	<path style="fill:#EFEFEF;" d="M260.526,80.746L156.464,3.724l-0.028-0.021l-0.03-0.019l-0.154-0.101l-0.031-0.021l-0.032-0.019
		c-3.646-2.105-7.798-3.217-12.008-3.217c-4.169,0-8.287,1.093-11.907,3.16c-0.106,0.061-0.212,0.13-0.312,0.205L27.838,80.745
		c-0.908,0.674-1.337,1.821-1.097,2.923l13.004,53.641h5.917L32.796,84.428c-0.02-0.092,0.028-0.22,0.128-0.294L135.158,8.469
		c0.02-0.015,0.038-0.027,0.057-0.038c2.731-1.539,5.831-2.352,8.965-2.352s6.234,0.813,8.965,2.352
		c0.019,0.011,0.037,0.023,0.037,0.023l102.256,75.68c0.098,0.073,0.146,0.2,0.119,0.322l-12.251,52.851h5.913l12.393-53.612
		C261.861,82.567,261.431,81.419,260.526,80.746z"/>
	<g>
		<path style="fill:#EFEFEF;" d="M222.394,226.602l-5.436,23.208c-0.015,0.068-0.083,0.151-0.174,0.192l-72.464,31.575
			c-0.05,0.022-0.094,0.032-0.14,0.032c-0.046,0-0.09-0.009-0.131-0.028l-72.033-31.582c-0.083-0.038-0.151-0.121-0.172-0.219
			l-5.396-23.178h-5.926l6.037,25.946c0.199,0.913,0.806,1.663,1.632,2.036l74.813,32.838c0.367,0.166,0.765,0.252,1.176,0.252
			s0.81-0.086,1.184-0.255l75.246-32.831c0.833-0.376,1.441-1.127,1.634-2.011l6.079-25.975H222.394z"/>
	</g>
	<g>
		<path style="fill:#35495C;" d="M105.532,163.179v13.127c-0.956-1.648-1.967-2.179-4.252-2.179h-2.339
			c-4.145,0-6.112,2.551-6.112,7.547v12.915c0,4.412,1.807,6.697,5.687,6.697h2.339c2.976,0,4.358-1.01,5.049-3.082l0.531,3.082
			h4.73v-39.329h-0.903L105.532,163.179z M105.532,193.048c-0.159,1.913-0.903,2.763-2.179,2.763h-2.711
			c-1.488,0-2.179-0.903-2.179-3.135v-9.939c0-2.232,0.691-3.135,2.126-3.135h2.764c1.382,0,2.073,0.956,2.179,2.87V193.048z"/>
		<path style="fill:#35495C;" d="M60.094,163.551l-9.939,37.735h6.431l1.542-6.697h10.045l1.541,6.697h6.378l-9.885-37.735H60.094z
			 M59.562,188.477l3.614-15.519l3.561,15.519H59.562z"/>
		<path style="fill:#35495C;" d="M90.013,173.543l-4.464,1.594c-1.169,0.426-1.86,1.329-2.392,2.498v-3.189h-0.85l-4.411,1.222
			v25.617h5.687v-17.06c0-2.02,0.585-2.87,2.179-3.401l5.049-1.701l-0.425-5.58H90.013z"/>
		<path style="fill:#35495C;" d="M126.737,174.127h-6.112c-3.561,0-5.314,2.179-5.314,6.325v2.232h5.261v-0.478
			c0-1.701,0.531-2.391,1.701-2.391h2.764c1.169,0,1.754,0.691,1.754,2.391v2.711h-7.016c-3.561,0-5.314,2.072-5.314,6.059v3.88
			c0,4.358,1.754,6.431,5.314,6.431h2.764c2.604,0,3.667-0.478,4.73-2.71l0.425,2.71h4.73v-20.781
			C132.424,176.253,130.564,174.127,126.737,174.127z M126.79,192.782c0,1.967-0.585,2.817-1.807,2.817h-3.986
			c-0.797,0-1.329-0.372-1.329-2.073v-0.903c0-1.542,0.531-2.445,1.329-2.445h5.793V192.782z"/>
	</g>
	<path style="fill:#35495C;" d="M148.579,174.127h-2.285c-2.392,0-3.72,0.638-4.677,2.498v-2.179h-0.85l-4.412,1.222v25.617h5.687
		v-19.292c0.053-1.595,0.85-2.605,2.126-2.605h2.339c1.488,0,2.125,0.904,2.125,3.136v18.761h5.687v-20.515
		C154.319,176.359,152.46,174.127,148.579,174.127z"/>
	<path style="fill:#35495C;" d="M171.902,121.139c0.868,0.805,2.584,1.464,3.813,1.464h20.578c1.229,0,1.523-0.659,0.655-1.464
		l-39.053-36.216c-0.868-0.805-1.579-0.533-1.579,0.607v19.083c0,1.139,0.711,2.729,1.579,3.536L171.902,121.139z"/>
</g>
</svg>
